/* XPM */
static char *seg3[] = {
/* columns rows colors chars-per-pixel */
"28 58 78 1 ",
"  c #000000",
". c #080507",
"X c #0A0709",
"o c #0D0A0C",
"O c #100E0F",
"+ c #120F11",
"@ c #161315",
"# c #181517",
"$ c #171518",
"% c #191618",
"& c #1D1A1B",
"* c #211E1F",
"= c #211F21",
"- c #252223",
"; c #292628",
": c #2C2A2B",
"> c #302E2F",
", c #302E30",
"< c #363436",
"1 c #3E3B3C",
"2 c #403E3E",
"3 c #423F40",
"4 c #454344",
"5 c #484645",
"6 c #484748",
"7 c #4A494B",
"8 c #504D4D",
"9 c #535253",
"0 c #5D5B5C",
"q c #615E5E",
"w c #5F5E60",
"e c #635F60",
"r c #656363",
"t c #6B6767",
"y c #6D6B6B",
"u c #706D6E",
"i c #716F71",
"p c #757374",
"a c #787778",
"s c #7B7A7B",
"d c #858485",
"f c #878889",
"g c #8B8B8C",
"h c #908D8E",
"j c #959494",
"k c #989796",
"l c #9B9A9B",
"z c #A6A5A6",
"x c #A7A7A8",
"c c #A8A7A8",
"v c #A6A8A9",
"b c #ABAAAA",
"n c #B0AEAF",
"m c #B3B2B3",
"M c #B6B7B8",
"N c #BAB7B8",
"B c #BCBCBC",
"V c #C0BFC0",
"C c #C4C3C4",
"Z c #CAC7C7",
"A c #CCCCCC",
"S c #D5D5D5",
"D c #DCDCDC",
"F c #E0DFDF",
"G c #E1E1DF",
"H c #DEDFE1",
"J c #DFE1E2",
"K c #E3E3E4",
"L c #E7E8E7",
"P c #E8E8E7",
"I c #E6E7E8",
"U c #E6E9EA",
"Y c #ECECEC",
"T c #EFEFF1",
"R c #F4F4F4",
"E c #F9F8F7",
"W c #F6F7F8",
"Q c #FEFEFE",
/* pixels */
"@@@@#+@sDQQQQQQQQQQQQQQR0:o#",
"@@@@o&CQQQQQQQQQQQQQQEQMkE1o",
"@@@@-AQEEQQQQQQQQQQQQQQyKQD*",
"@@#.9WQQQQQQQQQQQQQQQQbjQRQg",
"@#o  0BQQQQQQQQQQQQQQEuIQEQD",
"@%    aaPQEQEEQQQQEEQxkQQQQR",
"##X     0bQQQQQQQQQQRyYQEQQQ",
"#@%      dabbbbbbczmazQEQQQQ",
"#+          XX....o ;RQQQQQR",
"@          o%#$$$%%o4QQQQQQR",
"#           #@@@@@%X4QQQQQQI",
"#X          #@@@@@%.qQQQQQQD",
"%.         + @@@@@%.uQQQQEQB",
"#.         @ @@@@@% sQQQQQQb",
"%            @@@@@%.gQQQQQQl",
"%.           #@@@@@.zQQQQQQg",
"#.           @@@@@@XMQQQQQQd",
"#            @@@@@%oBQQQQEQs",
"#            @@+@@@@SQQQQQQp",
"@         . @@@@@%+&DQQQQQQy",
"@         . @@@@@@+-YQQQQQQ6",
"+         X @@@@@@o,WQQQQQR<",
"o         O&##%#&&o5QQQQQQY;",
"o          . ..... 5QQEQQQI-",
"o       g9gffdfdfdgyhQQQQQS%",
"       rkQQQQQQQQQQQkyPQRQZo",
"      tSQQEQQQEQQEEQQB0AQQjX",
" O   lQQQQQQQQQQQQQQQQDumdo@",
"   ;vQEQQQQQQQQQQQQQQEQA,oo$",
"     lQQQQQQQQQQQQQQQQmeKV-o",
"      aRQEEQQEQQQQEQQfpRQQp.",
"       qDQQQQQQQQQQYykQQEQrX",
"        9dgfgffgfgfqCQEQQQ8X",
"          ....... #DQEQQQE1o",
"         o&#%@@%%+1EQQQQQE< ",
"          #@@@@@#o2QQQQQQY:+",
"          @@@@@@$X9QQQQQQG@.",
"         .#@@@@@@.rQEQQQQC  ",
"          @@@@@@#.aQQQQQQm  ",
"          @@@@@@%.dQEQQQQc  ",
"          @@@@@@%.lQEQQQQk  ",
"          #@@@@@#XbQQQQQQg  ",
"          @@@@#@#XBQQQQQQd  ",
"          @@@@@@@+ZQEQQQQa  ",
"        . @@@@@@@%DQQQQQQp  ",
"        .#@@@@@@+-UQQQQQQ9  ",
"        .@@@@@@$O;YQQQQQQ3  ",
"        X###@##$o1EQEQQQR:@%",
"        X@@@+@@@.7QQQQEQL-O@",
"       -%*&&&%&=@8QQQQQQD&@ ",
"      qMUKKKIKJHUaAQQQQQB   ",
"     sPQQQQQQQQQQZsQEQEQl   ",
"   qBQQQQQQQQQQQEQsCQQQQ0   ",
"  dTQQQQQQQQQQQQQQSaQEQH#   ",
":AQQQQQQQQQQQQQQQQQdBQQt.   ",
"$ZQEEEQQQQQQQQQQQQQSaQk.    ",
"O&CQQQQQQQQQQQQQQQEQk0@O    ",
"$O@pZYRRRRRRRRRRRRDz2.%o    "
};
