/* XPM */
static char *seg7[] = {
/* columns rows colors chars-per-pixel */
"28 58 73 1 ",
"  c #020101",
". c #080507",
"X c #070608",
"o c #0A0709",
"O c #0D0A0C",
"+ c #100E0F",
"@ c #120F11",
"# c #161214",
"$ c #181517",
"% c #171518",
"& c #191618",
"* c #1D1A1B",
"= c #211F1F",
"- c #211F21",
"; c #252223",
": c #282526",
"> c #292628",
", c #2C2A2C",
"< c #302E2F",
"1 c #302E30",
"2 c #363436",
"3 c #3E3B3C",
"4 c #403E3E",
"5 c #423F40",
"6 c #454344",
"7 c #484645",
"8 c #484748",
"9 c #4A494B",
"0 c #504D4D",
"q c #535252",
"w c #5D5A5B",
"e c #605E5E",
"r c #5F5E60",
"t c #635F60",
"y c #656363",
"u c #696667",
"i c #6D6B6C",
"p c #706D6E",
"a c #716F71",
"s c #757374",
"d c #787778",
"f c #7C7B7B",
"g c #848383",
"h c #8D8B8C",
"j c #908D8E",
"k c #959494",
"l c #989796",
"z c #9B9B9C",
"x c #A6A6A6",
"c c #A7A7A8",
"v c #A8A7A8",
"b c #ABAAAA",
"n c #B0AEAF",
"m c #B3B3B3",
"M c #BAB7B8",
"N c #BDBCBC",
"B c #C0BFC0",
"V c #C4C3C3",
"C c #CAC7C7",
"Z c #CCCCCC",
"A c #D6D5D6",
"S c #DCDCDC",
"D c #E0DFDF",
"F c #E1E1DF",
"G c gray90",
"H c #E7E8E7",
"J c #E8E8E7",
"K c #E6E7E8",
"L c #ECECEC",
"P c #F5F5F5",
"I c #F8F8F7",
"U c #F6F7F8",
"Y c #FEFEFE",
/* pixels */
"####%@#fSYYYYYYYYYYYYYYPw,O$",
"###%o*VYYYYYYYYYYYYYYIYMlI3X",
"##%#;ZYIIYYYYYYYYYYYYYYiDYS;",
"##%#qUYYYYYYYYYYYYYYYYbkYPYh",
"#%o##wNYYYYYYYYYYYYYYIpGYIYS",
"#%X###sdJYIYIIYYYYIIYclYYYYP",
"%%o###%#wbYYYYYYYYYYPuLYIYYY",
"##%######gdbvvbvvvvmfxYIYYYY",
"%#=#########oo.X.Xo :PYYYYYP",
"#O:########O*#$&$&&+6YYYYYYP",
"%##########+%#####&X6YYYYYYJ",
"%#########;+%#%###&XeYYYYYYS",
"$##########+$#####&XpYYYYIYN",
"$#############$#%#& fYYYYYYv",
"&#########o#######& hYYYYYYz",
"&############$####&.xYYYYYYh",
"=.###############%%XmYYYYYYg",
"@.#################ONYYYYIYf",
"#o##################AYYYYYYs",
"#################$@=SYYYYYYi",
"##################@;LYYYYYY9",
"@#################O1IYYYYYP2",
"+#################+8YYYYYYL:",
"O################# 7YYIYYYK;",
"o###################jYYYYYA*",
".##############@#####iJYPYCO",
".#####################wZYYko",
"#######################pmgO#",
"########################1OO#",
"######################@tGV;#",
"######################sPYYa ",
"#####################lYYIYyX",
"####@#@###@########eVYIYYY0o",
"##########.###### #SYIYYYI3O",
"##########=#&###*+3IYYYYYI2 ",
"################$O4YYYYYYL,@",
"################&oqYYYYYYF#X",
"#########@=#####&XuYYYYYYV  ",
"################& dYIYYYYm  ",
"################* gYIYYYYv  ",
"################&.zYYYYYYl  ",
"################$obYIYYYYh  ",
"##############=+%XMYYYYYYg  ",
"#################+ZYYYYYYf  ",
"################@*SYYYYYYs  ",
"################@;KYYYYYYq  ",
"###############$@>LYYYYYY4  ",
"##########$##$#&O3IYIYYYP,#&",
"##############+#.7YYYYYYG;+#",
"##############==#0YIYYYYS*# ",
"#################fZYIYIYN   ",
"##################fYYYYYz   ",
"##################fCYYIYe   ",
"#########@#########dYIYD$   ",
"###################gBYYu    ",
"####################sYl.    ",
"#####################w#+    ",
"##################### &+    "
};
