/* XPM */
static char *seg4[] = {
/* columns rows colors chars-per-pixel */
"28 58 76 1 ",
"  c #000000",
". c #080507",
"X c #070608",
"o c #0A0709",
"O c #0D0A0C",
"+ c #100D0F",
"@ c #110F11",
"# c #161315",
"$ c #181517",
"% c #171518",
"& c #191618",
"* c #1C191B",
"= c #211E1F",
"- c #201E20",
"; c #252223",
": c #282627",
"> c #292628",
", c #2C2A2B",
"< c #302E2F",
"1 c #302E30",
"2 c #363435",
"3 c #383738",
"4 c #3E3B3C",
"5 c #403D3E",
"6 c #423F40",
"7 c #464445",
"8 c #484646",
"9 c #484748",
"0 c #4A494B",
"q c #504D4D",
"w c #545353",
"e c #5D5B5C",
"r c #615E5E",
"t c #5F5E60",
"y c #635F60",
"u c #646363",
"i c #6B6767",
"p c #6C6B6B",
"a c #706D6D",
"s c #716F71",
"d c #747373",
"f c #7B7A7A",
"g c #858485",
"h c #878889",
"j c #8B8B8C",
"k c #908D8E",
"l c #959494",
"z c #989796",
"x c #9B9B9B",
"c c #A6A5A6",
"v c #A6A8A9",
"b c #ABAAAB",
"n c #B3B3B3",
"m c #B7B7B9",
"M c #BAB7B8",
"N c #BDBDBC",
"B c #BFBFC0",
"V c #C0BFC0",
"C c #C4C3C4",
"Z c #CAC7C7",
"A c #CDCCCD",
"S c #D4D4D4",
"D c #D7D8DA",
"F c #DCDCDC",
"G c #E0DFDF",
"H c #E1E1DF",
"J c #E4E4E4",
"K c #E8E8E7",
"L c #E6E7E8",
"P c #EBEBEC",
"I c #F0EFEF",
"U c #EFF0F0",
"Y c #F5F5F5",
"T c #F9F8F7",
"R c #F6F7F8",
"E c #FEFEFE",
/* pixels */
"####$@#                  ,O$",
"###%O*                  lT5O",
"###@                   pJEF=",
"##$.                   lEREj",
"#$O4br                sJETEF",
"#% gEJd               lETEER",
"$$OMEEEmr            pPEEEEE",
"$#%DETEEPg           cETEEEE",
"$#*JEEETEE7 O....oO ;REEEEER",
"#O:PEEEEEE7O*$$$$$$O7EEEETEY",
"$O3YEEEEEY,+%#####%O7EEEEEEK",
"$O8EEEEEEP:@######%.rEEEEEEF",
"$.wEEEEEEG=@$#####%.sEEEETEN",
"$.uEEEEEES####$###% fEEEEEEb",
"$ fETEETECo%######* jEEEEEEx",
"%.jEEEEEEmX%######%.cEEEEEEj",
"%.zEEEETTc.$#######OnEEEEEEh",
"$.bEEEEEEj.$@######+VEEEETEf",
"$OBEEEEEEf.$########SEEEEEEd",
"$OAEEEETEd.$######+=FEEEEEEp",
"#$SEEEEEEr.$######+;PEEEEEE9",
"+;JEEEEEE8o%#####$+<REEEEER3",
"+,UEEEEER5+*#&%*&=O8EEEEEEP:",
"O3TEEETEY: .. . .. 8EETEEEL=",
"O8EEETEEjwjhhhhhhhjpkEETTES*",
".uEREEAulEEEEEEEEEEElpPETEZO",
".eEEYjpSEETETETETETEENrAEElo",
"#OpCaxEEEEEEEEEEEEEEEEFpngO#",
"$OO>vETTEEEEEEEEEEEEETEA1OO#",
"O   axEEEEEEEEEEEEEEEEnyJV;@",
"      fRETTEETETETTEEjdYEEs.",
"       rFEEEEEEEEEEPplEETEu.",
"        wgjjjjjjjjhrCETTEEqO",
"          ...  .. #FETEEEE4O",
"         O*%*%%%*O4TEEEEET2 ",
"          $#####$O5EEEEEEP>@",
"           #####$.wEEEEEEH#.",
"           #####$.iETEEEEC  ",
"          # ####%.dEEEEEEn  ",
"            ####%.hETEEEEv  ",
"           ####$%.xETEEEEl  ",
"           #####$obEEEEEEj  ",
"          ######$oMEEEEEEg  ",
"          #######+AETEEEEf  ",
"          #####$+*FEEEEEEd  ",
"          #######;LEEEEEEw  ",
"          #####$+>PEEEEEE6  ",
"          #$#$#%O4TETEEER,@*",
"              @#.9EEEEEEK;+#",
"                 wEEEETEF*# ",
"                 fAETEEEN   ",
"                  fEEEEEx   ",
"                  fCEEEEe   ",
"                   fETEF$   ",
"                    VEEi.   ",
"                    dEl.    ",
"                     e#O    ",
"                      %+    "
};
