/* XPM */
static char *seg6[] = {
/* columns rows colors chars-per-pixel */
"28 58 86 1 ",
"  c #010001",
". c #080507",
"X c #070608",
"o c #090709",
"O c #0D0A0C",
"+ c #100D0F",
"@ c #120F11",
"# c #161315",
"$ c #181517",
"% c #171518",
"& c #191618",
"* c #1D1A1B",
"= c #211E1F",
"- c #221F21",
"; c #252223",
": c #282627",
"> c #292628",
", c #2D2B2C",
"< c #302D2E",
"1 c #373435",
"2 c #383536",
"3 c #383738",
"4 c #3D3A3B",
"5 c #403D3E",
"6 c #423F40",
"7 c #464445",
"8 c #484646",
"9 c #4B494B",
"0 c #504D4D",
"q c #514F50",
"w c #545253",
"e c #5D5A5B",
"r c #615E5E",
"t c #5F5E60",
"y c #635F60",
"u c #646363",
"i c #6B6767",
"p c #6D6B6C",
"a c #706D6D",
"s c #716F71",
"d c #747373",
"f c #787575",
"g c #787778",
"h c #7B7A7A",
"j c #848485",
"k c #878889",
"l c #8B8B8C",
"z c #908D8E",
"x c #969494",
"c c #989796",
"v c #9B9A9B",
"b c #A5A4A5",
"n c #A7A7A8",
"m c #A8A7A8",
"M c #A6A8A9",
"N c #ABAAAA",
"B c #B0AEAF",
"V c #AEAEB0",
"C c #B4B3B3",
"Z c #B8B7B7",
"A c #B7B7B9",
"S c #BAB7B8",
"D c #BCBBBB",
"F c #BFBFC0",
"G c #C0BFC0",
"H c #C4C3C4",
"J c #C8C7C8",
"K c #CCCCCC",
"L c #D0D0CF",
"P c #D3D3D3",
"I c #D7D8DA",
"U c #DCDCDD",
"Y c #E0DFDF",
"T c #DEDFE1",
"R c #DFE1E2",
"E c #E3E3E4",
"W c #E7E8E7",
"Q c #E6E8E9",
"! c #ECECEC",
"~ c #F0EFEF",
"^ c #EFEFF1",
"/ c #EFF0F0",
"( c #F4F4F4",
") c #F8F7F7",
"_ c #F9F8F7",
"` c #FEFEFE",
/* pixels */
"####$@#hU``````````````(e,O$",
"####O*H``````````````_`Zx  o",
"####;K`_`_````````````_p   -",
"##$.q_````````````````Bx    ",
"#$O4NtD``_```````````_a     ",
"#& j`EdgQ``___````_)`nx     ",
"$#oD```AtN``````````(p      ",
"%#&I`_``~jdNNNNNNmnCh       ",
"$@-E``````7 ooX..oO ;       ",
"#+:Q`_``_`7O&$$%$&&O        ",
"&O3(`````(<O%#####&o        ",
"$o8``````Q;#$#####$         ",
"&.w``````R*#######          ",
"&.u``````P########          ",
"$ h`_``_`Ho$#####           ",
"&.l``````Do%#$###           ",
"&.c````_`b.$####            ",
"%.N``````z $####            ",
"#OF``````h.$####            ",
"$OK````_`a.$#@##            ",
"#$P``````y.$$#@# #          ",
"@;E``````8o$##$##$          ",
"O,(`````_4+&$$&&&=          ",
"O1_```_`): .. .  .          ",
"O8```_``lwlkkkkkkklpz      $",
".u`_``Kux```````````xp      ",
"Xe``(lpP``_`_`_`_`_``D     o",
"$OpHav````````````````Up    ",
"$oO:M`_``````````````_`K   &",
"+3H(ac````````````````CyEG;O",
".C``_kh(`__``_`_`__``ld(``d.",
"OD`__`NrU``````````!px``_`u.",
"#L```_`PwjllkkllllkrH`__``0o",
"*U`_``_`e .... .. #I`_````4O",
";E``````9O&&&$&&&#4_`````_1 ",
",(`````(1O$$####$O5``````!>#",
"7``````~>+$#####%ow``````Y#.",
"9``````Q;+$$#####.u`_````H  ",
"w``````U&$$@$###&.d``````C  ",
"p``````JO$$@#@$#&.k`_````m  ",
"j``````Do$##$#$#&.v`_````x  ",
"l`_````No$##@###$oN``````l  ",
"b``````x.$$$##$#$oD``````j  ",
"Z`_``_`k &$@#####@J`_````h  ",
"H``````h.&######+&U``````d  ",
"K``````u.&#$#####;Q``````w  ",
"U``````q.##@###&@>!``````5  ",
"!``````7o$$$#%#&O4_`_```(,#&",
"_`````_4o###@###.9````_`E;@$",
"````_`U;&=*****-+q``````U*# ",
"`````CuAQEEEEERRQhL`````D   ",
"`_`EfhQ``````````Jh`_`_`v   ",
")`meD```````````_`hH````e   ",
"Vdj(``````````````Ph`_`T$   ",
",K```_`````````````jG``i.   ",
"&J`__``````````````Pd`x.    ",
"+*H`````````````````ce%@    ",
"%+#dJ!((((((((((((Ub6 &O    "
};
