/* XPM */
static char *seg9[] = {
/* columns rows colors chars-per-pixel */
"28 58 85 1 ",
"  c #010001",
". c #080507",
"X c #070608",
"o c #0A0709",
"O c #0D0A0C",
"+ c #100D0F",
"@ c #120F11",
"# c #161315",
"$ c #181517",
"% c #171518",
"& c #191618",
"* c #1D1A1B",
"= c #211E1F",
"- c #211F21",
"; c #252223",
": c #282627",
"> c #292628",
", c #2D2B2C",
"< c #302E2F",
"1 c #302E30",
"2 c #363435",
"3 c #383738",
"4 c #3E3B3C",
"5 c #403D3E",
"6 c #423F40",
"7 c #464445",
"8 c #484646",
"9 c #484748",
"0 c #4A494B",
"q c #504D4D",
"w c #545252",
"e c #5D5B5C",
"r c #615E5E",
"t c #5F5E60",
"y c #635F60",
"u c #646262",
"i c #6B6767",
"p c #6C6B6B",
"a c #706D6E",
"s c #716F71",
"d c #747373",
"f c #787778",
"g c #7B7A7A",
"h c #858485",
"j c #878889",
"k c #8B8B8C",
"l c #908D8E",
"z c #959494",
"x c #989796",
"c c #9B9A9B",
"v c #A6A5A5",
"b c #A7A7A8",
"n c #A8A7A8",
"m c #A6A8A9",
"M c #ABAAAA",
"N c #B0AEAF",
"B c #B4B3B3",
"V c #B7B7B9",
"C c #BAB7B8",
"Z c #BCBCBC",
"A c #BFBFC0",
"S c #C0BFC0",
"D c #C4C3C4",
"F c #CAC7C7",
"G c #CCCCCC",
"H c #D4D4D4",
"J c #D7D8DA",
"K c #DCDCDC",
"L c #E0DFDF",
"P c #E1E1DF",
"I c #DEDFE1",
"U c #DFE1E2",
"Y c #E3E3E4",
"T c #E7E8E7",
"R c #E8E8E7",
"E c #E6E7E8",
"W c #E6E9EA",
"Q c #EBEBEC",
"! c #F0EFEF",
"~ c #EFEFF1",
"^ c #EFF0F0",
"/ c #F4F4F4",
"( c #F9F8F7",
") c #F6F7F8",
"_ c #FEFEFE",
/* pixels */
"####$+#gK______________/e,O$",
"####O*D______________(_Vx(5O",
"####;G_((______________pY_J=",
"##$.w)________________Nz_(_k",
"#$O4MtV__(___________(aY_(_J",
"#& h_YffT__(((____((_bx____(",
"$$OV_(_VyM__________(iQ_(___",
"##&J_(__QhfMMMMmMnnBfv_(____",
"$#*Y______7 O....XO ;(_____(",
"$O:Q_(__(_7O&$$$$&&O7______!",
"$O3/_____/<O%$####&o7______Q",
"$O8______Q:@######&oe______J",
"$.w______U*#######&.a____(_Z",
"$.u______H####$###& g______M",
"& f_(__(_DO$######&.k______c",
"&.k______VX$#######.b______k",
"&.x____(_v.$#######oB______j",
"$.M______l.&##@###%OS____(_g",
"#OD_(____g &########H______d",
"$OG____(_a.$######@=K______p",
"#$H______y.#$#@##$+;Q______9",
"@;Y______8o&##$##$+1)_____(3",
"O,^_____)5O*$$&&%&+8______Q:",
"+3(___(_/: .. . .. 8__(___E=",
"O7___(__kwkjjjjjjjkpk___(_H&",
".u_(__Gux___________xpQ_(_FO",
".e__(kpH__(___(__((__ZrG__zo",
"#OiDpc________________KpBhO#",
"$OO>m_(______________(_G1OO#",
"O    c________________ByYS;+",
".     f(_((__(____(__kd/__d.",
"O      rK__________Qix__(_uo",
"#       whkkkkkkkkjyD_(___qO",
"          ... . . #J_(___(4O",
"          &&&%%&&@4(_____(2 ",
"         O$#####$O5______Q>@",
"         +$#####$ow______P#.",
"         +######$.u______D  ",
"         ###@$##&.f_(____B  ",
"         $#$$@#$& j_(____n  ",
"           #####&.c______x  ",
"        .$$#####$oM______k  ",
"          ####$#$oV_(____h  ",
"         $#######+G______f  ",
"        .&#######&K______d  ",
"         %######@;T______w  ",
"        .$#####%+>Q______5  ",
"          #$#$$%O4(_(___(,#&",
"          ##@###.0______Y;@#",
"        &-***&*-#q____(_K*# ",
"      yVTYYYYYUUWfG_(___Z   ",
"     fQ__________Fg_____c   ",
"   eV___________(_gF____e   ",
"  h~______________Gf_(_K$   ",
",G__(______________hZ__i.   ",
"&F_(_______________Hf_x.    ",
"+*A_________________xe$+    ",
"$+#dFQ(////(//////Jv5.%O    "
};
