/* XPM */
static char *LedRed[] = {
/* columns rows colors chars-per-pixel */
"24 23 2 1 ",
"  c red",
". c white",
/* pixels */
".........      .........",
"......            ......",
".....              .....",
"....                 ...",
"...                  ...",
"..                    ..",
".                      .",
".                      .",
".                       ",
"                        ",
"                        ",
"                        ",
"                        ",
"                        ",
"                        ",
".                      .",
".                      .",
"..                    ..",
"...                  ...",
"...                  ...",
".....              .....",
"......            ......",
".........      ........."
};
