/* XPM */
static char *LightYellow[] = {
/* columns rows colors chars-per-pixel */
"43 45 2 1 ",
"  c black",
". c yellow",
/* pixels */
"                                           ",
"                                           ",
"                                           ",
"                                           ",
"                                           ",
"                ............               ",
"              ................             ",
"            ....................           ",
"           ......................          ",
"         ..........................        ",
"        ............................       ",
"        ............................       ",
"       ..............................      ",
"      ................................     ",
"      ................................     ",
"     ..................................    ",
"     ..................................    ",
"    ....................................   ",
"    ....................................   ",
"    ....................................   ",
"    ....................................   ",
"    ....................................   ",
"    ....................................   ",
"    ....................................   ",
"    ....................................   ",
"    ....................................   ",
"    ....................................   ",
"    ....................................   ",
"    ....................................   ",
"     ..................................    ",
"     ..................................    ",
"      ................................     ",
"      ................................     ",
"       ..............................      ",
"        ............................       ",
"        ............................       ",
"         ..........................        ",
"           ......................          ",
"            ....................           ",
"              ................             ",
"                ............               ",
"                                           ",
"                                           ",
"                                           ",
"                                           "
};
