/* XPM */
static char *seg1[] = {
/* columns rows colors chars-per-pixel */
"28 58 64 1 ",
"  c #010101",
". c #080607",
"X c #070608",
"o c #0A0709",
"O c #0D0A0C",
"+ c #100E0F",
"@ c #120F11",
"# c #161214",
"$ c #181517",
"% c #171518",
"& c #191618",
"* c #1D1A1B",
"= c #211F21",
"- c #252223",
"; c #292628",
": c #2C2A2B",
"> c #302E2F",
", c #302E30",
"< c #363436",
"1 c #3E3B3C",
"2 c #403E3E",
"3 c #423F40",
"4 c #454344",
"5 c #484645",
"6 c #484748",
"7 c #4A494B",
"8 c #504D4D",
"9 c #535253",
"0 c #5E5B5C",
"q c #605E5E",
"w c #635F60",
"e c #656363",
"r c #696667",
"t c #6D6B6C",
"y c #706D6E",
"u c #716F71",
"i c #747373",
"p c #7C7A7B",
"a c #848384",
"s c #8D8B8C",
"d c #908D8E",
"f c #959494",
"g c #989796",
"h c #9B9B9C",
"j c #A6A5A6",
"k c #ABAAAB",
"l c #B2B2B2",
"z c #BAB7B8",
"x c #BEBDBD",
"c c #C0BFC0",
"v c #C5C3C3",
"b c #CAC7C7",
"n c #CDCDCD",
"m c #D6D5D6",
"M c #DBDBDB",
"N c #E0DFDF",
"B c #E1E1DF",
"V c gray90",
"C c #E8E8E7",
"Z c #E6E7E8",
"A c #ECECEC",
"S c #F5F5F5",
"D c #F6F7F8",
"F c #FEFEFE",
/* pixels */
"####%+%#################  o&",
"###%o*################# fD2o",
"##%####################tBFM=",
"##%################+## fFDFs",
"#%o###################yVFDFM",
"%$################### gFFFFD",
"#%###################rAFFDFF",
"$################### jFDFFFF",
"$#################o -DFFFFFD",
"##############%%$%*O4FFFFFFS",
"$#############%###&o5FFFFFFC",
"$###########%#####&o0FFFFFFM",
"$#################%XyFFFFDFx",
"$################%& pFFFFFFj",
"&#########o#######& sFFFFFFh",
"&$#############$##&ojFFFFFFs",
"& ################%ozFFFFFFa",
"$.################%OxFFFFDFp",
"$O###############%##mFFFFFFi",
"$##########$#@###%#*MFFFFFFt",
"###########$######@-AFFFFFF7",
"+#################O,DFFFFFD<",
"+#################O5FFFFFFA-",
"O################# 5FFDFFFZ-",
"o###################dFFFFFm&",
".####################tCFDFbO",
".#####################qbFFfo",
"#######################ylao%",
"########################,OO&",
"#######################qVc-@",
"######################iSFFi ",
"#####################gFFDFeo",
"########@##########qvFDFFF8o",
"##########o###### #MFDFFFF1o",
"##########&#$###*+1DFFFFFD< ",
"################&o2FFFFFFA:@",
"##@#############&o9FFFFFFB#X",
"##########$#####&orFDFFFFv  ",
"################& iFFFFFFl  ",
"###############$& sFDFFFFj  ",
"##############$$$XhFDFFFFf  ",
"##########$#####%okFFFFFFs  ",
"##############$#%ozFFFFFFa  ",
"##################bFDFFFFp  ",
"#################&MFFFFFFi  ",
"##@############$@-CFFFFFF9  ",
"###############$@;AFFFFFF2  ",
"##########$##$#&O1DFDFFFD:#&",
"################.5FFFFFFC-@#",
"##############**@9FDFFFFM&# ",
"#################pnFFFFFx   ",
"##################pFDFDFh   ",
"##################pvFFFFq   ",
"###################pFDFN$   ",
"###################acFFr    ",
"####################iFf.    ",
"#####################0#+    ",
"##################### &+    "
};
