/* XPM */
static char *seg2[] = {
/* columns rows colors chars-per-pixel */
"28 58 78 1 ",
"  c #000000",
". c #080507",
"X c #070608",
"o c #0B0709",
"O c #0D0A0C",
"+ c #100E0F",
"@ c #110E11",
"# c #151315",
"$ c #181517",
"% c #191618",
"& c #1D1A1B",
"* c #211F20",
"= c #252223",
"- c #2D2B2C",
"; c #302E2F",
": c #302E30",
"> c #363537",
", c #383536",
"< c #3D3B3C",
"1 c #423F40",
"2 c #444243",
"3 c #484645",
"4 c #484748",
"5 c #4C4A4B",
"6 c #514F50",
"7 c #545353",
"8 c #5D5A5C",
"9 c #615E5E",
"0 c #5F5E60",
"q c #635F60",
"w c #656363",
"e c #6C6767",
"r c #6D6B6C",
"t c #706D6D",
"y c #757474",
"u c #787575",
"i c #787778",
"p c #7C7B7B",
"a c #858485",
"s c #878889",
"d c #8B8B8C",
"f c #908D8E",
"g c #959394",
"h c #989796",
"j c #9A9A9A",
"k c #A5A4A5",
"l c #A7A7A8",
"z c #A8A7A8",
"x c #A6A8A9",
"c c #AAAAAA",
"v c #B0AEAF",
"b c #AEAEB0",
"n c #B3B3B3",
"m c #B8B7B7",
"M c #B6B7B8",
"N c #BCBBBB",
"B c #C4C3C4",
"V c #CAC7C7",
"C c #C8C7C8",
"Z c #CCCCCC",
"A c #D0D0CF",
"S c #D4D4D4",
"D c #DCDCDC",
"F c #E1E1DF",
"G c #DEDFE1",
"H c #DFE1E2",
"J c #E3E3E4",
"K c #E7E8E7",
"L c #E8E8E7",
"P c #E6E7E8",
"I c #E6E8E9",
"U c #ECECED",
"Y c #EFEFF1",
"T c #F4F4F4",
"R c #F8F7F7",
"E c #F9F8F7",
"W c #F6F7F8",
"Q c #FEFEFE",
/* pixels */
"####$@#pDQQQQQQQQQQQQQQT8-o%",
"###$O&BQQQQQQQQQQQQQQEQmhE1o",
"####=ZQEEQQQQQQQQQQQQQQrHQD*",
"##$.6WQQQQQQQQQQQQQQQQcgQTQd",
"#$O  qMQQEQQQQQQQQQQQEtPQEQD",
"#%    uiKQQEEEQQQQERQxhQQQQR",
"$$O     0cQQQQQQQQQQTrUQEQQQ",
"$#       aucccccczknikQEQQQQ",
"$@                  =TQQQQQR",
"#+                 O2QQQQQQY",
"%O                 o4QQQQQQP",
"%                  .9QQQQQQD",
"%.                 .tQQQQEQN",
"%                   pQQQQQQc",
"                   .dQQQQQQj",
"%                  .kQQQQQQd",
"%                  omQQQQQQa",
"                   oNQQQQEQp",
"                   $SQQQQQQy",
"#                  &DQQQQQQr",
"#                  =UQQQQQQ4",
"@                  :WQQQQQT>",
"                   4QQQQQQU=",
"O                  4QQEQQQP=",
"        d7dsassasasrfQQQQQS%",
".      whQQQQQQQQQQQhrLQTQVO",
"X     rSQQEQQQEQQEEQQN9ZQQgO",
"$   tjQQQQQQQQQQQQQQQQDrnao$",
"$OO=cQEQQQQQQQQQQQQQQEQZ;OO$",
"O,CTthQQQQQQQQQQQQQQQQnq   #",
".nQQQaiTQEEQQEQQEQEQQsy     ",
"ONQEEQc9DQQQQQQQQQQUrh      ",
"#AQQQRQS7addsdddddsw        ",
"&DQEQQRQ8                   ",
"*PQQQQQQ4                   ",
"-TQQQQQR,                   ",
"1QQQQQQY-                   ",
"5QQQQQQK=                   ",
"7QQQQQQD%                   ",
"tQQQQQQCO                   ",
"pQQQQQQm                    ",
"fQEQQQQc                    ",
"kQQQQQQh                    ",
"mQEQQQQa                    ",
"BQQQQQQp                    ",
"ZQQQQQQw                    ",
"DQQQQQQ6                    ",
"UQQQQQQ2                    ",
"EQQQQQE<                    ",
"QQEQEQD=                    ",
"QQEQQmwMKJJJJJHGIp          ",
"QQQPuiLQQQQQQQQQQZi         ",
"EQl9NQQQQQQQQQQQEQp         ",
"byaYQQQQQQQQQQQQQQSi        ",
"-ZQQQQQQQQQQQQQQQQQa        ",
"%CQEEEQQQQQQQQQQQQQSy       ",
"+&BQQQQQQQQQQQQQQQEQh8#     ",
"#+@yCYTTTTTTTTTTTTDk1.$O    "
};
