/* XPM */
static char *seg5[] = {
/* columns rows colors chars-per-pixel */
"28 58 79 1 ",
"  c #000000",
". c #080507",
"X c #070608",
"o c #090709",
"O c #0D0A0C",
"+ c #100D0F",
"@ c #120F11",
"# c #161315",
"$ c #181517",
"% c #171518",
"& c #191618",
"* c #1D1A1B",
"= c #211E1F",
"- c #221F21",
"; c #242223",
": c #282627",
"> c #292628",
", c #2D2B2C",
"< c #302D2E",
"1 c #373435",
"2 c #383738",
"3 c #3D3B3C",
"4 c #403D3E",
"5 c #423F40",
"6 c #464446",
"7 c #484646",
"8 c #4A494B",
"9 c #504D4D",
"0 c #545252",
"q c #5D5A5B",
"w c #615E5E",
"e c #5F5E60",
"r c #635F60",
"t c #646262",
"y c #6B6767",
"u c #6C6B6C",
"i c #706D6D",
"p c #716F71",
"a c #747373",
"s c #787575",
"d c #787778",
"f c #7B7A7A",
"g c #858485",
"h c #878889",
"j c #8B8B8C",
"k c #908D8E",
"l c #969595",
"z c #989796",
"x c #9B9A9B",
"c c #A6A5A5",
"v c #A7A7A8",
"b c #A8A7A8",
"n c #A6A8A9",
"m c #ABAAAA",
"M c #B0AEAF",
"N c #B4B3B4",
"B c #B7B7B9",
"V c #BAB7B8",
"C c #BBBBBB",
"Z c #BFBFC0",
"A c #C0BFC0",
"S c #C4C3C4",
"D c #CCCCCC",
"F c #D3D4D4",
"G c #D7D8DA",
"H c #DCDDDD",
"J c #E0DFDF",
"K c #DEDFE1",
"L c #DFE1E2",
"P c #E3E3E4",
"I c #E7E8E7",
"U c #E6E9EA",
"Y c #EBEBEC",
"T c #F0EFEF",
"R c #EFEFF1",
"E c #EFF0F0",
"W c #F4F4F4",
"Q c #F9F8F7",
"! c #FEFEFE",
/* pixels */
"####$@#fH!!!!!!!!!!!!!!Wq,O$",
"####O*S!!!!!!!!!!!!!!Q!B   X",
"####;D!Q!Q!!!!!!!!!!!!!u   ;",
"##$.0Q!!!!!!!!!!!!!!!!M     ",
"##o3meB!!Q!!!!!!!!!!!Qi     ",
"#$.g!PddU!!QQQ!!!!QW!m      ",
"$$oC!!!Brm!!!!!!!!!!Wu      ",
"$#&G!Q!!YgdmmmmmmbbNd       ",
"$#*P!!!Q!!6 oXX..XO ;       ",
"#O:U!!!!!!6O&$$&$&&O        ",
"&O2W!!!!!W,O$#####&X        ",
"&o7!!!!!!Y:@$#####&         ",
"&.0!!!!!!L=@$#####          ",
"$.t!!!!!!F#####$##          ",
"& d!Q!!Q!So%#####           ",
"&.j!!!!!!Bo&#####           ",
"&.z!!!!QQc.#####            ",
"%.m!!!!!!j.=####            ",
"#OZ!!!!!!f $####            ",
"$OD!!!!Q!a.###$#            ",
"#$F!!!!!!r.####@ #          ",
"@;P!!!!!!7X&$####$          ",
"O,W!!!!!Q4@&$$&&&=          ",
"+1Q!!!Q!W: .. .  .          ",
"O6!!!Q!!j0jhhhhhhhjuk      &",
".t!Q!!Dtl!!!!!!!!!!!lu      ",
".q!!WjuF!!Q!Q!Q!Q!Q!!C     o",
"#OuSix!!!!!!!!!!!!!!!!Hi    ",
"$oO>n!Q!!!!!!!!!!!!!!Q!D   $",
"    ix!!!!!!!!!!!!!!!!NwPA;O",
".     dW!QQ!!Q!Q!QQ!!jaW!!a.",
"o      wH!!!!!!!!!!Yuz!!Q!t.",
"$       0gjjhhjjjjhrS!QQ!!9o",
"*         ..... . #G!Q!!!!3O",
";        O*&&&$&&@3Q!!!!!Q1 ",
"         O$#$@##$O4!!!!!!Y,@",
"         +$#####$X0!!!!!!J#.",
"         +######$.y!Q!!!!S  ",
"        &#######&.d!!!!!!N  ",
"        +$$@$@$$& h!Q!!!!b  ",
"        o$##@###$.x!Q!!!!l  ",
"        X$##$###$Om!!!!!!j  ",
"        .$$###$#$XB!!!!!!g  ",
"         &$######+D!Q!!!!d  ",
"        .&######@&H!!!!!!a  ",
"        .&#####$#;U!!!!!!0  ",
"        .#######@>Y!!!!!!5  ",
"        X&#$#&#&O3Q!Q!!!W,#&",
"        .#@##@##.8!!!!!!I;+#",
"       ;*=*****-@9!!!!Q!H*# ",
"      wBUPPPPPPKUdD!Q!!!C   ",
"    sdY!!!!!!!!!!Df!!!!!x   ",
"   qB!!!!!!!!!!!Q!fS!!!!q   ",
" agW!!!!!!!!!!!!!!Fd!Q!H$   ",
",D!!!Q!!!!!!!!!!!!!gA!!y.   ",
"&S!QQ!!!!!!!!!!!!!!Fd!l.    ",
"#*S!!!!!!!!!!!!!!!!!xq#@    ",
"$O#aDYWWWWWWWWWWWWHc5 %O    "
};
