/* XPM */
static char *seg8[] = {
/* columns rows colors chars-per-pixel */
"28 58 93 2 ",
"   c #030102",
".  c #080507",
"X  c #070608",
"o  c #0A0709",
"O  c #0D0A0C",
"+  c #100D0F",
"@  c #120F11",
"#  c #161315",
"$  c #181517",
"%  c #171518",
"&  c #191618",
"*  c #1D1A1B",
"=  c #211E1F",
"-  c #211F20",
";  c #252223",
":  c #282627",
">  c #292628",
",  c #2D2B2C",
"<  c #302E2F",
"1  c #302E30",
"2  c #363435",
"3  c #383536",
"4  c #383738",
"5  c #3D3B3C",
"6  c #403D3E",
"7  c #423F40",
"8  c #454345",
"9  c #484646",
"0  c #484748",
"q  c #4B494B",
"w  c #504D4D",
"e  c #514F50",
"r  c #545253",
"t  c #5D5B5C",
"y  c #615E5E",
"u  c #5F5E60",
"i  c #635F60",
"p  c #646363",
"a  c #6B6767",
"s  c #6D6B6C",
"d  c #706D6D",
"f  c #716F71",
"g  c #757373",
"h  c #787575",
"j  c #787778",
"k  c #7B7A7B",
"l  c #848484",
"z  c #878889",
"x  c #8B8B8C",
"c  c #908D8E",
"v  c #959494",
"b  c #989796",
"n  c #9B9A9B",
"m  c #A5A4A5",
"M  c #A7A7A8",
"N  c #A8A7A8",
"B  c #A6A8A9",
"V  c #ABAAAA",
"C  c #B0AEAF",
"Z  c #AEAEB0",
"A  c #B4B3B3",
"S  c #B8B7B7",
"D  c #B7B7B9",
"F  c #BAB7B8",
"G  c #BCBCBC",
"H  c #BFBFC0",
"J  c #C0BFC0",
"K  c #C4C3C4",
"L  c #CAC7C7",
"P  c #C8C7C8",
"I  c #CCCCCC",
"U  c #D0D0CF",
"Y  c #D3D3D4",
"T  c #D7D8DA",
"R  c #DCDCDC",
"E  c #E0DFDF",
"W  c #E1E1DF",
"Q  c #DEDFE1",
"!  c #DFE1E2",
"~  c #E4E3E4",
"^  c #E7E8E7",
"/  c #E8E8E7",
"(  c #E6E7E8",
")  c #E6E8E9",
"_  c #ECECEC",
"`  c #F0EFEF",
"'  c #EFEFF1",
"]  c #EFF0F0",
"[  c #F4F4F4",
"{  c #F8F7F7",
"}  c #F9F8F7",
"|  c #F6F7F8",
" . c #FEFEFE",
/* pixels */
"# # # # $ + # k R  . . . . . . . . . . . . . .[ t , O & ",
"# # # # O * K  . . . . . . . . . . . . . .}  .S b } 6 X ",
"# # # # ; I  .} }  . . . . . . . . . . . . . .s !  .R ; ",
"# # $ . r |  . . . . . . . . . . . . . . . .V v  .[  .x ",
"# % o 5 V u D  . .}  . . . . . . . . . . .} d (  .}  .R ",
"# &   l  .~ h j )  . .} } }  . . . .} {  .M b  . . . .[ ",
"$ $ o G  . . .D i V  . . . . . . . . . .[ s )  .}  . . .",
"$ # & T  .}  . ._ l h V V V V V V N M A j M  .}  . . . .",
"$ # * ~  . . . . . .8   o X . . . X o   : [  . . . . .[ ",
"# O > )  .}  . .}  .8 O & $ & % & & & O 8  . . . . . .[ ",
"& O 4 [  . . . . .[ , + % $ # # # # & O 8  . . . . . .^ ",
"& o 0  . . . . . .) : @ # # # # # # & X t  . . . . . .R ",
"& . r  . . . . . .! = @ $ # # # # # &   d  . . . .}  .G ",
"&   p  . . . . . .Y # # # # # $ # # &   k  . . . . . .V ",
"&   k  .}  . .}  .K o % # # # # # # &   x  . . . . . .n ",
"& . x  . . . . . .D o & # # # # # # & X M  . . . . . .x ",
"&   b  . . . .}  .m . & # # # # # # $ o A  . . . . . .z ",
"& . V  . . . . . .x . & # # # # # # # + J  . . . .}  .k ",
"$ O K  .}  . . . .k   & @ # # # # # # # Y  . . . . . .g ",
"$ O I  . . . .}  .d . & # # # # # # @ = R  . . . . . .s ",
"# $ Y  . . . . . .y . $ # # # # # # + ; _  . . . . . .0 ",
"@ ; (  . . . . . .9 X & # # # # # & + < |  . . . . .[ 4 ",
"@ , _  . . . . .{ 6 + & & & & & & = O 9  . . . . . ._ : ",
"O 3 }  . . .}  .[ >   .   .     . .   8  . .}  . . .( = ",
"O 8  . . . . .} x r x z z z z z z z x s c  . . . . .T & ",
". p  .|  . .U p b  . . . . . . . . . . .b s )  .[  .L O ",
". t  . .[ x a Y  . .}  . . .}  . .} }  . .G t I  . .v X ",
"# O s K d n  . . . . . . . . . . . . . . . .R d A l O # ",
"$ o O > B  .}  . . . . . . . . . . . . . .{  .I < O + # ",
"O 3 P ` d n  . . . . . . . . . . . . . . . .A y ~ J ; # ",
". A  . .} z j [  .} }  . .}  . . . .}  . .x g [  . .f   ",
"O H  .{  . .V y R  . . . . . . . . . ._ s b  . .}  .p . ",
"# U  .}  .}  .Y r l x x x x x x x x x i K  .}  . . .w o ",
"* R  . . . .}  .t   o     .         # T  .}  . . .} 5 O ",
"= (  . . . . . .0 O & & & & & & & + 5 }  . . . . .} 3   ",
", [  . . . . .[ 3 O & # # # # # & O 6  . . . . . ._ > @ ",
"8  . . . . . .` > @ # # # $ @ $ & X r  . . . . . .W #   ",
"q  . . . . . .) - @ $ # # # # # & X a  . . . . . .P     ",
"r  . . . . . .R = @ # # # # # # &   h  .}  . . . .A     ",
"s  . . . . . .P O & # # # # # # &   z  .}  . . . .N     ",
"l  . . . . . .D o & # # # # # # & . n  .}  . . . .b     ",
"x  .}  . . . .V . & # # # # # # & X C  . . . . . .x     ",
"m  .}  . . . .v . & # # # # # # $ X D  . . . . . .l     ",
"S  . . . . . .z   & # # # # # # # # L  .}  . . . .j     ",
"K  . . . . . .k   & # # # # # $ + & R  . . . . . .g     ",
"I  . . . . . .p . & # # # # # # # ; )  . . . . . .r     ",
"R  . . . . . .e o $ # # # # # $ + > _  . . . . . .8     ",
"_  . . . . . .7 O $ # $ # $ # & O 5 }  .}  . . .[ > # & ",
"}  . . . . .} 5 . # @ # # @ # # . q  . . . .}  .^ ; + # ",
" . .}  .}  .R ; * = * * * * * - @ e  . . . . . .R & #   ",
" . .}  . .A p D ( ! ~ ( ( ~ ! Q ) k U  .}  . . .G       ",
" . . .( h k )  . . . . . . . . . .P j  .}  . . .n       ",
"}  .N y G  . . . . . . . . . . .}  .k L  . . . .t       ",
"Z g l '  . . . . . . . . . . . . . .U j  .}  .Q $       ",
", I  . .}  . . . . . . . . . . . . . .l G  . .a         ",
"& P  .} }  . . . . . . . . . . . . . .Y h  .b .         ",
"+ * K  . . . . . . . . . . . . . . . . .b t # +         ",
"% + # g P _ [ [ [ [ [ [ [ [ [ [ [ [ R m 7   % +         "
};
