/* XPM */
static char *seg[] = {
/* columns rows colors chars-per-pixel */
"146 87 2 1 ",
"  c black",
". c white",
/* pixels */
"                                                                                                                                                  ",
"                                                                                                                                                  ",
"                .................................................................................................................                 ",
"             .......................................................................................................................              ",
"           ...........................................................................................................................            ",
"          ..............................................................................................................................          ",
"         ................................................................................................................................         ",
"       ..........                                                                                                               ..........        ",
"       ........                                                                                                                    ........       ",
"      .......                                                                                                                        .......      ",
"     .......                                                                                                                          .......     ",
"    .......                                                                                                                            .......    ",
"    ......                                                                                                                              ......    ",
"   ......                                                                                                                                ......   ",
"   ......                                                                                                                                ......   ",
"   .....                                                                                                                                  .....   ",
"  ......                                                                                                                                  ......  ",
"  .....                                                                                                                                    .....  ",
"  .....                                                                                                                                    .....  ",
"  .....                                                                                                                                    .....  ",
"  .....                                                                                                                                    .....  ",
"  .....                                                                                                                                    .....  ",
"  .....                                                                                                                                    .....  ",
"  .....                                                                                                                                    .....  ",
"  .....                                                                                                                                    .....  ",
"  .....                                                                                                                                    .....  ",
"  .....                                                                                                                                    .....  ",
"  .....                                                                                                                                    .....  ",
"  .....                                                                                                                                    .....  ",
"  .....                                                                                                                                    .....  ",
"  .....                                                                                                                                    .....  ",
"  .....                                                                                                                                    .....  ",
"  .....                                                                                                                                    .....  ",
"  .....                                                                                                                                    .....  ",
"  .....                                                                                                                                    .....  ",
"  .....                                                                                                                                    .....  ",
"  .....                                                                                                                                    .....  ",
"  .....                                                                                                                                    .....  ",
"  .....                                                                                                                                    .....  ",
"  .....                                                                                                                                    .....  ",
"  .....                                                                                                                                    .....  ",
"  .....                                                                                                                                    .....  ",
"  .....                                                                                                                                    .....  ",
"  .....                                                                                                                                    .....  ",
"  .....                                                                                                                                    .....  ",
"  .....                                                                                                                                    .....  ",
"  .....                                                                                                                                    .....  ",
"  .....                                                                                                                                    .....  ",
"  .....                                                                                                                                    .....  ",
"  .....                                                                                                                                    .....  ",
"  .....                                                                                                                                    .....  ",
"  .....                                                                                                                                    .....  ",
"  .....                                                                                                                                    .....  ",
"  .....                                                                                                                                    .....  ",
"  .....                                                                                                                                    .....  ",
"  .....                                                                                                                                    .....  ",
"  .....                                                                                                                                    .....  ",
"  .....                                                                                                                                    .....  ",
"  .....                                                                                                                                    .....  ",
"  .....                                                                                                                                    .....  ",
"  .....                                                                                                                                    .....  ",
"  .....                                                                                                                                    .....  ",
"  .....                                                                                                                                    .....  ",
"  .....                                                                                                                                    .....  ",
"  .....                                                                                                                                    .....  ",
"  .....                                                                                                                                    .....  ",
"  .....                                                                                                                                    .....  ",
"  .....                                                                                                                                    .....  ",
"  .....                                                                                                                                    .....  ",
"  .....                                                                                                                                    .....  ",
"  ......                                                                                                                                  ......  ",
"   .....                                                                                                                                  .....   ",
"   .....                                                                                                                                  .....   ",
"   ......                                                                                                                                ......   ",
"    ......                                                                                                                              ......    ",
"    .......                                                                                                                            .......    ",
"     .......                                                                                                                          .......     ",
"      .......                                                                                                                        .......      ",
"      .........                                                                                                                    ........       ",
"       ..........                                                                                                                ..........       ",
"         ................................................................................................................................         ",
"          ..............................................................................................................................          ",
"           ...........................................................................................................................            ",
"             ........................................................................................................................             ",
"                .................................................................................................................                 ",
"                                                                                                                                                  ",
"                                                                                                                                                  "
};
