/* XPM */
static char *seg0[] = {
/* columns rows colors chars-per-pixel */
"28 58 91 1 ",
"  c #020102",
". c #080507",
"X c #070608",
"o c #0A0709",
"O c #0D0A0C",
"+ c #100D0F",
"@ c #120F11",
"# c #161214",
"$ c #181517",
"% c #171518",
"& c #191618",
"* c #1D1A1B",
"= c #211E1F",
"- c #211F20",
"; c #252223",
": c #282627",
"> c #292628",
", c #2D2B2C",
"< c #302E2F",
"1 c #302E30",
"2 c #363435",
"3 c #383536",
"4 c #383738",
"5 c #3D3B3C",
"6 c #403D3E",
"7 c #423F40",
"8 c #454345",
"9 c #484646",
"0 c #484748",
"q c #4B494B",
"w c #504D4D",
"e c #514F50",
"r c #545353",
"t c #5D5B5C",
"y c #605E5E",
"u c #5F5E60",
"i c #635F60",
"p c #646363",
"a c #6B6767",
"s c #6D6B6C",
"d c #706D6D",
"f c #716F71",
"g c #757373",
"h c #787575",
"j c #787778",
"k c #7B7A7B",
"l c #838283",
"z c #8C8B8C",
"x c #908D8E",
"c c #959494",
"v c #989796",
"b c #9B9B9B",
"n c #A5A4A5",
"m c #A7A7A8",
"M c #A8A7A8",
"N c #ABAAAA",
"B c #B0AEAF",
"V c #AEAEB0",
"C c #B4B3B3",
"Z c #B8B7B7",
"A c #B7B7B9",
"S c #BAB7B8",
"D c #BCBBBC",
"F c #BFBFC0",
"G c #C0BFC0",
"H c #C4C3C4",
"J c #CAC7C7",
"K c #C8C7C8",
"L c #CCCCCD",
"P c #D0D0CF",
"I c #D3D3D3",
"U c #D7D8DA",
"Y c #DCDCDC",
"T c #E0DFDF",
"R c #E1E1DF",
"E c #DEDFE1",
"W c #DFE1E2",
"Q c #E4E3E4",
"! c #E7E8E7",
"~ c #E8E8E7",
"^ c #E6E7E8",
"/ c #E6E8E9",
"( c #ECECEC",
") c #F0EFEF",
"_ c #EFEFF1",
"` c #EFF0F0",
"' c #F4F4F4",
"] c #F8F7F7",
"[ c #F9F8F7",
"{ c #F6F7F8",
"} c #FEFEFE",
/* pixels */
"####%O#kY}}}}}}}}}}}}}}'t,O$",
"####O*H}}}}}}}}}}}}}}[}Zv[5O",
"##%#;L}[[}}}}}}}}}}}}}}sW}Y-",
"##%.r{}}}}}}}}}}}}}}}}Nc}'}z",
"#%O5NuS}}[}}}}}}}}}}}[d^}[}Y",
"#% l}Qhj~}}[[[}}}}[]}mv}}}}]",
"%%OS}}}AuN}}}}}}}}}}'s~}[}}}",
"%#&U}[}})lhNMMNNMMMCjm}[}}}}",
"%#*Q}}}}}}8 ooXX..O ;'}}}}}[",
"#O:~}[}}[}8O*%%%&&&O8}}}}}})",
"$O4'}}}}}',+%#####&.8}}}}}}^",
"%O0}}}}}}(;@######&.y}}}}}}Y",
"$.r}}}}}}W*#%#####%Xd}}}}[}D",
"$.p}}}}}}I#######%& k}}}}}}M",
"$.j}[}}[}HO%######&.z}}}}}}b",
"$.z}}}}}}SX%#%#####Xm}}}}}}z",
"&Xv}}}}[[n.########.C}}}}}}l",
"&.M}}}}}}x.#######&OG}}}}[}k",
"#OH}[}}}}k.=########I}}}}}}g",
"#+L}}}}[}d.######%#*Y}}}}}}s",
"#%I}}}}}}y.$######@;(}}}}}}0",
"@;^}}}}}}9.#######O1{}}}}}'4",
"+,(}}}}}[6@#######O9}}}}}}`;",
"O3[}}}[}'; ####### 9}}[}}}^;",
"O8}}}}}[xr##########x}}}}}I&",
".p}{}}Lp#@###########s~}'}JO",
".t}}'zs###############yJ}}cO",
"%OsHs##################dClO#",
"#OO>####################1OO#",
"O3K)d##########@#######yQG;@",
".C}}}l################g'}}gX",
"OF}[[}N##############v}}[}p.",
"#P}}}[}I###########yH}[}}}wO",
"*Y}[}}[}t .###### #Y}[}}}[5O",
"=^}}}}}}0O*#$###&@5[}}}}}[2 ",
",'}}}}}'3O######$O6}}}}}}(>@",
"7}}}}}}),+######&.r}}}}}}R#.",
"q}}}}}}^-+$######Xp}}}}}}K  ",
"r}}}}}}Y=+######&Xh}[}}}}C  ",
"d}}}}}}KO$######&.l}[}}}}M  ",
"l}}}}}}SO$####$$% b}[}}}}v  ",
"z}[}}}}M.$######%OB}}}}}}z  ",
"n}}}}}}v.$######%.S}}}}}}l  ",
"Z}[}}}}l $###%####J}[}}}}j  ",
"H}}}}}}k *##%##%#&Y}}}}}}g  ",
"L}}}}}}p.$#####%@;/}}}}}}r  ",
"Y}}}}}}w.$######+>(}}}}}}8  ",
"(}}}}}}7O$%##%%%O5[}[}}}'>#&",
"[}}}}}[5.%##@###.0}}}}[}!;+#",
"}}[}[}Y;&=***&*-+r}}}}}}Y&# ",
"}}[}}ZpA^QQQQQWW/kP}[}}}D   ",
"}}}^jj~}}}}}}}}}}Kj}[}}}b   ",
"]}mtS}}}}}}}}}}}[}kJ}}}}t   ",
"Vgl'}}}}}}}}}}}}}}Ij}[}E%   ",
",L}}[}}}}}}}}}}}}}}lD}}a.   ",
"&K}[[}}}}}}}}}}}}}}Ij}v.    ",
"+*H}}}}}}}}}}}}}}}}}vt#+    ",
"%+#gK(''''''''''''Yn7 %+    "
};
